<svg width="32" height="32" viewBox="0 0 32 32" fill="none" xmlns="http://www.w3.org/2000/svg">
<rect width="32" height="32" rx="10.5681" fill="url(#paint0_linear_12591_96)"/>
<g filter="url(#filter0_d_12591_96)">
<path d="M15.9916 6.69031C21.8494 6.69031 26.5982 10.7915 26.5982 15.8505C26.5982 20.9096 21.8494 25.0108 15.9916 25.0108C14.7906 25.0108 13.6362 24.8384 12.5598 24.5207C11.357 25.4561 9.49149 26.2415 6.96384 26.8755C6.84417 26.9056 6.71756 26.8888 6.60982 26.8287C6.37612 26.6983 6.29239 26.4031 6.4228 26.1694L6.60369 25.8411C7.44311 24.2966 7.96685 23.0298 8.17489 22.0409C6.442 20.4109 5.38501 18.2373 5.38501 15.8505C5.38501 10.7915 10.1337 6.69031 15.9916 6.69031Z" fill="white"/>
</g>
<defs>
<filter id="filter0_d_12591_96" x="3.75323" y="5.38488" width="24.4767" height="23.4634" filterUnits="userSpaceOnUse" color-interpolation-filters="sRGB">
<feFlood flood-opacity="0" result="BackgroundImageFix"/>
<feColorMatrix in="SourceAlpha" type="matrix" values="0 0 0 0 0 0 0 0 0 0 0 0 0 0 0 0 0 0 127 0" result="hardAlpha"/>
<feOffset dy="0.326356"/>
<feGaussianBlur stdDeviation="0.815891"/>
<feComposite in2="hardAlpha" operator="out"/>
<feColorMatrix type="matrix" values="0 0 0 0 0 0 0 0 0 0 0 0 0 0 0 0 0 0 0.1 0"/>
<feBlend mode="normal" in2="BackgroundImageFix" result="effect1_dropShadow_12591_96"/>
<feBlend mode="normal" in="SourceGraphic" in2="effect1_dropShadow_12591_96" result="shape"/>
</filter>
<linearGradient id="paint0_linear_12591_96" x1="4.32422" y1="29.3721" x2="30.0248" y2="-5.88638e-07" gradientUnits="userSpaceOnUse">
<stop stop-color="#8135FE"/>
<stop offset="1" stop-color="#E8A6FF"/>
</linearGradient>
</defs>
</svg>
